<mxfile host="Electron" agent="Mozilla/5.0 (Windows NT 10.0; Win64; x64) AppleWebKit/537.36 (KHTML, like Gecko) draw.io/24.7.5 Chrome/126.0.6478.183 Electron/31.3.0 Safari/537.36" version="24.7.5">
  <diagram id="C5RBs43oDa-KdzZeNtuy" name="Page-1">
    <mxGraphModel dx="519" dy="1508" grid="1" gridSize="10" guides="1" tooltips="1" connect="1" arrows="1" fold="1" page="1" pageScale="1" pageWidth="827" pageHeight="1169" math="0" shadow="0">
      <root>
        <mxCell id="WIyWlLk6GJQsqaUBKTNV-0" />
        <mxCell id="WIyWlLk6GJQsqaUBKTNV-1" parent="WIyWlLk6GJQsqaUBKTNV-0" />
        <mxCell id="eQQbHNW9Zh0sPVYtzJ5o-6" value="objetos&lt;div&gt;-desarrolladores&lt;/div&gt;&lt;div&gt;-gestorProyectos&lt;/div&gt;&lt;div&gt;-administrador&lt;/div&gt;&lt;div&gt;-empresaDesarrollo&lt;/div&gt;&lt;div&gt;&lt;br&gt;&lt;/div&gt;" style="text;html=1;align=center;verticalAlign=middle;resizable=0;points=[];autosize=1;strokeColor=none;fillColor=none;" vertex="1" parent="WIyWlLk6GJQsqaUBKTNV-1">
          <mxGeometry x="35" y="-7" width="130" height="100" as="geometry" />
        </mxCell>
        <mxCell id="eQQbHNW9Zh0sPVYtzJ5o-22" value="" style="group" vertex="1" connectable="0" parent="WIyWlLk6GJQsqaUBKTNV-1">
          <mxGeometry x="25" y="310" width="140" height="80" as="geometry" />
        </mxCell>
        <mxCell id="eQQbHNW9Zh0sPVYtzJ5o-17" value="desarrollador" style="swimlane;fontStyle=0;childLayout=stackLayout;horizontal=1;startSize=20;fillColor=none;horizontalStack=0;resizeParent=1;resizeParentMax=0;resizeLast=0;collapsible=1;marginBottom=0;whiteSpace=wrap;html=1;" vertex="1" parent="eQQbHNW9Zh0sPVYtzJ5o-22">
          <mxGeometry width="140" height="46" as="geometry" />
        </mxCell>
        <mxCell id="eQQbHNW9Zh0sPVYtzJ5o-21" value="" style="html=1;whiteSpace=wrap;" vertex="1" parent="eQQbHNW9Zh0sPVYtzJ5o-22">
          <mxGeometry y="46" width="140" height="34" as="geometry" />
        </mxCell>
        <mxCell id="eQQbHNW9Zh0sPVYtzJ5o-23" value="" style="group" vertex="1" connectable="0" parent="WIyWlLk6GJQsqaUBKTNV-1">
          <mxGeometry x="214" y="93" width="200" height="170" as="geometry" />
        </mxCell>
        <mxCell id="eQQbHNW9Zh0sPVYtzJ5o-12" value="&lt;i&gt;empleado&lt;/i&gt;" style="swimlane;fontStyle=0;childLayout=stackLayout;horizontal=1;startSize=20;fillColor=none;horizontalStack=0;resizeParent=1;resizeParentMax=0;resizeLast=0;collapsible=1;marginBottom=0;whiteSpace=wrap;html=1;movable=0;resizable=0;rotatable=0;deletable=0;editable=0;locked=1;connectable=0;" vertex="1" parent="eQQbHNW9Zh0sPVYtzJ5o-23">
          <mxGeometry width="200" height="120" as="geometry" />
        </mxCell>
        <mxCell id="eQQbHNW9Zh0sPVYtzJ5o-14" value="- id: entero&lt;div&gt;- nombre : string&lt;/div&gt;&lt;div&gt;- sueldoHora : decimal&lt;/div&gt;&lt;div&gt;- numeroTelefono : entero&lt;/div&gt;&lt;div&gt;- email : string&lt;/div&gt;&lt;div&gt;- aÃ±osExperiencia : entero&lt;/div&gt;&lt;div&gt;&lt;br&gt;&lt;/div&gt;" style="text;strokeColor=none;fillColor=none;align=left;verticalAlign=top;spacingLeft=4;spacingRight=4;overflow=hidden;rotatable=1;points=[[0,0.5],[1,0.5]];portConstraint=eastwest;whiteSpace=wrap;html=1;movable=1;resizable=1;deletable=1;editable=1;locked=0;connectable=1;" vertex="1" parent="eQQbHNW9Zh0sPVYtzJ5o-12">
          <mxGeometry y="20" width="200" height="100" as="geometry" />
        </mxCell>
        <mxCell id="eQQbHNW9Zh0sPVYtzJ5o-16" value="getter()&lt;div&gt;setter()&lt;/div&gt;" style="html=1;whiteSpace=wrap;movable=1;resizable=1;rotatable=1;deletable=1;editable=1;locked=0;connectable=1;align=left;" vertex="1" parent="eQQbHNW9Zh0sPVYtzJ5o-23">
          <mxGeometry y="120" width="200" height="50" as="geometry" />
        </mxCell>
        <mxCell id="eQQbHNW9Zh0sPVYtzJ5o-40" value="" style="group" vertex="1" connectable="0" parent="WIyWlLk6GJQsqaUBKTNV-1">
          <mxGeometry x="214" y="330" width="200" height="90" as="geometry" />
        </mxCell>
        <mxCell id="eQQbHNW9Zh0sPVYtzJ5o-37" value="GestorProyectos" style="swimlane;fontStyle=0;childLayout=stackLayout;horizontal=1;startSize=20;fillColor=none;horizontalStack=0;resizeParent=1;resizeParentMax=0;resizeLast=0;collapsible=1;marginBottom=0;whiteSpace=wrap;html=1;movable=1;resizable=1;rotatable=1;deletable=1;editable=1;locked=0;connectable=1;" vertex="1" parent="eQQbHNW9Zh0sPVYtzJ5o-40">
          <mxGeometry width="200" height="50" as="geometry" />
        </mxCell>
        <mxCell id="eQQbHNW9Zh0sPVYtzJ5o-38" value="&lt;div&gt;- area : string&lt;/div&gt;&lt;div&gt;&lt;br&gt;&lt;/div&gt;" style="text;strokeColor=none;fillColor=none;align=left;verticalAlign=top;spacingLeft=4;spacingRight=4;overflow=hidden;rotatable=1;points=[[0,0.5],[1,0.5]];portConstraint=eastwest;whiteSpace=wrap;html=1;movable=1;resizable=1;deletable=1;editable=1;locked=0;connectable=1;" vertex="1" parent="eQQbHNW9Zh0sPVYtzJ5o-37">
          <mxGeometry y="20" width="200" height="30" as="geometry" />
        </mxCell>
        <mxCell id="eQQbHNW9Zh0sPVYtzJ5o-39" value="getter()&lt;div&gt;setter()&lt;/div&gt;" style="html=1;whiteSpace=wrap;movable=1;resizable=1;rotatable=1;deletable=1;editable=1;locked=0;connectable=1;align=left;" vertex="1" parent="eQQbHNW9Zh0sPVYtzJ5o-40">
          <mxGeometry y="50" width="200" height="40" as="geometry" />
        </mxCell>
        <mxCell id="eQQbHNW9Zh0sPVYtzJ5o-41" value="" style="edgeStyle=orthogonalEdgeStyle;rounded=0;orthogonalLoop=1;jettySize=auto;html=1;" edge="1" parent="WIyWlLk6GJQsqaUBKTNV-1" source="eQQbHNW9Zh0sPVYtzJ5o-37" target="eQQbHNW9Zh0sPVYtzJ5o-16">
          <mxGeometry relative="1" as="geometry" />
        </mxCell>
        <mxCell id="eQQbHNW9Zh0sPVYtzJ5o-48" style="edgeStyle=orthogonalEdgeStyle;rounded=0;orthogonalLoop=1;jettySize=auto;html=1;entryX=1;entryY=0.5;entryDx=0;entryDy=0;" edge="1" parent="WIyWlLk6GJQsqaUBKTNV-1" source="eQQbHNW9Zh0sPVYtzJ5o-43" target="eQQbHNW9Zh0sPVYtzJ5o-16">
          <mxGeometry relative="1" as="geometry" />
        </mxCell>
        <mxCell id="eQQbHNW9Zh0sPVYtzJ5o-43" value="Admin" style="swimlane;fontStyle=0;childLayout=stackLayout;horizontal=1;startSize=20;fillColor=none;horizontalStack=0;resizeParent=1;resizeParentMax=0;resizeLast=0;collapsible=1;marginBottom=0;whiteSpace=wrap;html=1;movable=1;resizable=1;rotatable=1;deletable=1;editable=1;locked=0;connectable=1;container=0;" vertex="1" parent="WIyWlLk6GJQsqaUBKTNV-1">
          <mxGeometry x="470" y="330" width="200" height="50" as="geometry" />
        </mxCell>
        <mxCell id="eQQbHNW9Zh0sPVYtzJ5o-45" value="" style="html=1;whiteSpace=wrap;movable=1;resizable=1;rotatable=1;deletable=1;editable=1;locked=0;connectable=1;align=left;container=0;" vertex="1" parent="WIyWlLk6GJQsqaUBKTNV-1">
          <mxGeometry x="470" y="380" width="200" height="30" as="geometry" />
        </mxCell>
        <mxCell id="eQQbHNW9Zh0sPVYtzJ5o-44" value="&lt;div&gt;&lt;br&gt;&lt;/div&gt;" style="text;strokeColor=none;fillColor=none;align=left;verticalAlign=top;spacingLeft=4;spacingRight=4;overflow=hidden;rotatable=1;points=[[0,0.5],[1,0.5]];portConstraint=eastwest;whiteSpace=wrap;html=1;movable=1;resizable=1;deletable=1;editable=1;locked=0;connectable=1;" vertex="1" parent="WIyWlLk6GJQsqaUBKTNV-1">
          <mxGeometry x="470" y="350" width="200" height="30" as="geometry" />
        </mxCell>
        <mxCell id="eQQbHNW9Zh0sPVYtzJ5o-49" value="" style="group" vertex="1" connectable="0" parent="WIyWlLk6GJQsqaUBKTNV-1">
          <mxGeometry x="90" y="505" width="230" height="160" as="geometry" />
        </mxCell>
        <mxCell id="eQQbHNW9Zh0sPVYtzJ5o-50" value="&lt;i&gt;empresa&lt;/i&gt;" style="swimlane;fontStyle=0;childLayout=stackLayout;horizontal=1;startSize=20;fillColor=none;horizontalStack=0;resizeParent=1;resizeParentMax=0;resizeLast=0;collapsible=1;marginBottom=0;whiteSpace=wrap;html=1;" vertex="1" parent="eQQbHNW9Zh0sPVYtzJ5o-49">
          <mxGeometry width="230" height="120" as="geometry" />
        </mxCell>
        <mxCell id="eQQbHNW9Zh0sPVYtzJ5o-54" value="- nit : entero&lt;div&gt;- nombre : string&lt;/div&gt;&lt;div&gt;- direccion : string&lt;/div&gt;&lt;div&gt;- ciudad : string&lt;/div&gt;&lt;div&gt;- numeroContacto : entero&lt;/div&gt;&lt;div&gt;- correoElectronico : entero&lt;/div&gt;" style="text;html=1;align=left;verticalAlign=middle;resizable=0;points=[];autosize=1;strokeColor=none;fillColor=none;" vertex="1" parent="eQQbHNW9Zh0sPVYtzJ5o-50">
          <mxGeometry y="20" width="230" height="100" as="geometry" />
        </mxCell>
        <mxCell id="eQQbHNW9Zh0sPVYtzJ5o-51" value="getter()&lt;div&gt;setter()&lt;/div&gt;" style="html=1;whiteSpace=wrap;align=left;" vertex="1" parent="eQQbHNW9Zh0sPVYtzJ5o-49">
          <mxGeometry y="120" width="230" height="30" as="geometry" />
        </mxCell>
        <mxCell id="eQQbHNW9Zh0sPVYtzJ5o-63" style="edgeStyle=orthogonalEdgeStyle;rounded=0;orthogonalLoop=1;jettySize=auto;html=1;" edge="1" parent="WIyWlLk6GJQsqaUBKTNV-1" source="eQQbHNW9Zh0sPVYtzJ5o-58">
          <mxGeometry relative="1" as="geometry">
            <mxPoint x="200" y="660" as="targetPoint" />
          </mxGeometry>
        </mxCell>
        <mxCell id="eQQbHNW9Zh0sPVYtzJ5o-58" value="EmpresaDesarrollo" style="swimlane;fontStyle=0;childLayout=stackLayout;horizontal=1;startSize=26;fillColor=none;horizontalStack=0;resizeParent=1;resizeParentMax=0;resizeLast=0;collapsible=1;marginBottom=0;whiteSpace=wrap;html=1;" vertex="1" parent="WIyWlLk6GJQsqaUBKTNV-1">
          <mxGeometry x="130" y="720" width="140" height="52" as="geometry" />
        </mxCell>
        <mxCell id="eQQbHNW9Zh0sPVYtzJ5o-62" value="" style="html=1;whiteSpace=wrap;" vertex="1" parent="WIyWlLk6GJQsqaUBKTNV-1">
          <mxGeometry x="130" y="772" width="140" height="20" as="geometry" />
        </mxCell>
      </root>
    </mxGraphModel>
  </diagram>
</mxfile>
